<?xml version="1.0" standalone="no"?>
<!DOCTYPE svg PUBLIC "-//W3C//DTD SVG 20010904//EN"
 "http://www.w3.org/TR/2001/REC-SVG-20010904/DTD/svg10.dtd">
<svg version="1.0" xmlns="http://www.w3.org/2000/svg"
 width="150.000000pt" height="150.000000pt" viewBox="0 0 150.000000 150.000000"
 preserveAspectRatio="xMidYMid meet">

<g transform="translate(0.000000,150.000000) scale(0.100000,-0.100000)"
fill="#000000" stroke="none">
<path d="M411 1474 c-17 -22 -21 -41 -21 -103 0 -91 14 -125 54 -129 52 -6 66
19 66 125 0 80 -3 96 -20 113 -27 27 -55 25 -79 -6z"/>
<path d="M1012 1484 c-20 -14 -22 -23 -22 -113 0 -82 3 -101 18 -114 21 -19
45 -21 73 -7 17 10 19 22 19 115 0 96 -2 105 -22 119 -12 9 -27 16 -33 16 -6
0 -21 -7 -33 -16z"/>
<path d="M170 1339 c-48 -19 -93 -62 -116 -113 l-24 -51 0 -535 c0 -499 1
-538 18 -569 10 -19 34 -43 53 -53 32 -17 72 -18 647 -18 655 0 653 0 697 50
19 21 20 38 23 569 2 375 0 558 -8 584 -14 47 -62 102 -111 128 -29 14 -59 19
-124 19 l-85 0 0 -46 c0 -37 -5 -51 -29 -75 -66 -65 -161 -15 -161 86 l0 35
-200 0 -200 0 0 -35 c0 -101 -95 -151 -161 -86 -24 24 -29 38 -29 75 l0 46
-82 -1 c-46 0 -94 -5 -108 -10z m1184 -341 c14 -19 16 -78 16 -438 0 -360 -2
-419 -16 -438 l-15 -22 -589 0 -589 0 -15 22 c-14 19 -16 78 -16 438 0 360 2
419 16 438 l15 22 589 0 589 0 15 -22z"/>
<path d="M290 785 l0 -75 28 0 c23 0 32 7 45 35 9 20 33 45 52 56 20 12 35 29
35 40 0 17 -8 19 -80 19 l-80 0 0 -75z"/>
<path d="M530 841 c0 -11 15 -28 35 -40 19 -11 43 -36 52 -56 13 -28 22 -35
45 -35 l28 0 0 75 0 75 -80 0 c-72 0 -80 -2 -80 -19z"/>
<path d="M784 847 c-3 -8 -4 -41 -2 -73 l3 -59 75 0 75 0 0 70 0 70 -73 3
c-55 2 -74 0 -78 -11z"/>
<path d="M1024 847 c-3 -8 -4 -41 -2 -73 l3 -59 75 0 75 0 0 70 0 70 -73 3
c-55 2 -74 0 -78 -11z"/>
<path d="M465 783 c-29 -7 -56 -34 -71 -70 -16 -37 -6 -73 28 -110 65 -70 192
-3 174 91 -11 58 -77 103 -131 89z m95 -70 c0 -11 -73 -83 -84 -83 -12 0 -56
40 -56 52 0 13 22 9 40 -7 15 -13 19 -12 45 15 27 28 55 40 55 23z"/>
<path d="M290 545 l0 -75 80 0 80 0 0 33 c0 26 -6 37 -26 48 -14 7 -36 26 -49
41 -17 19 -33 28 -54 28 l-31 0 0 -75z"/>
<path d="M612 599 c-7 -11 -29 -30 -48 -41 -30 -17 -35 -25 -32 -52 l3 -31 78
-3 77 -3 0 76 0 75 -33 0 c-22 0 -36 -7 -45 -21z"/>
<path d="M780 545 c0 -72 1 -75 23 -75 16 0 31 12 48 37 13 20 39 44 56 52 22
11 33 23 33 39 0 21 -4 22 -80 22 l-80 0 0 -75z"/>
<path d="M1020 596 c0 -17 10 -31 29 -42 17 -10 38 -33 48 -51 15 -28 23 -33
48 -31 30 3 30 3 33 76 l3 72 -81 0 c-78 0 -80 -1 -80 -24z"/>
<path d="M904 506 c-28 -28 -34 -42 -34 -76 0 -108 149 -141 199 -43 34 67
-25 153 -105 153 -16 0 -38 -12 -60 -34z m101 -86 c-21 -22 -42 -40 -47 -40
-4 0 -19 12 -33 27 -27 30 -16 46 14 19 16 -15 20 -13 51 19 23 23 37 32 44
25 7 -7 -3 -23 -29 -50z"/>
<path d="M294 366 c-3 -7 -4 -40 -2 -72 l3 -59 75 0 75 0 3 73 3 72 -76 0
c-55 0 -77 -4 -81 -14z"/>
<path d="M537 373 c-4 -3 -7 -35 -7 -69 0 -73 6 -77 101 -72 l54 3 3 73 3 72
-74 0 c-40 0 -77 -3 -80 -7z"/>
<path d="M780 305 l0 -76 78 3 c76 3 77 3 80 30 3 22 -2 30 -20 37 -14 5 -38
25 -56 45 -20 24 -40 36 -57 36 -25 0 -25 -1 -25 -75z"/>
<path d="M1091 349 c-12 -16 -33 -35 -47 -41 -18 -9 -24 -19 -24 -45 l0 -33
80 0 80 0 0 75 0 75 -33 0 c-25 0 -39 -7 -56 -31z"/>
</g>
</svg>
