<?xml version="1.0" standalone="no"?>
<!DOCTYPE svg PUBLIC "-//W3C//DTD SVG 20010904//EN"
 "http://www.w3.org/TR/2001/REC-SVG-20010904/DTD/svg10.dtd">
<svg version="1.0" xmlns="http://www.w3.org/2000/svg"
 width="150.000000pt" height="150.000000pt" viewBox="0 0 150.000000 150.000000"
 preserveAspectRatio="xMidYMid meet">

<g transform="translate(0.000000,150.000000) scale(0.100000,-0.100000)"
fill="#000000" stroke="none">
<path d="M179 1442 c-110 -57 -154 -155 -154 -342 0 -103 3 -121 26 -170 51
-108 120 -151 250 -158 105 -5 170 18 227 83 61 69 77 128 77 280 0 116 -3
136 -24 183 -46 102 -136 152 -272 152 -65 0 -85 -4 -130 -28z m196 -136 c29
-29 40 -106 30 -219 -8 -96 -24 -139 -59 -162 -37 -24 -89 -6 -107 38 -16 36
-19 194 -6 269 15 89 89 127 142 74z"/>
<path d="M1032 1408 c-38 -65 -114 -201 -362 -643 -139 -247 -254 -453 -257
-458 -2 -4 -16 1 -31 11 -15 11 -38 25 -51 32 l-23 12 7 -127 c4 -71 10 -147
14 -170 l6 -43 152 57 c84 31 155 59 158 63 3 3 -17 20 -45 37 l-51 31 28 48
c15 26 168 299 340 607 216 387 308 562 300 567 -7 4 -47 8 -89 8 -76 0 -77 0
-96 -32z"/>
<path d="M1133 719 c-152 -20 -234 -146 -235 -358 -1 -132 20 -200 82 -262 61
-61 124 -82 228 -77 161 8 244 95 272 282 41 278 -101 448 -347 415z m118
-165 c23 -25 24 -31 24 -162 0 -111 -4 -144 -18 -174 -35 -69 -113 -71 -146
-3 -18 36 -20 219 -3 280 24 84 93 113 143 59z"/>
</g>
</svg>
